<svg width="1378" height="49" viewBox="0 0 1378 49" fill="none" xmlns="http://www.w3.org/2000/svg">
<line x1="-0.00018491" y1="1.00977" x2="1378.01" y2="0.50015" stroke="black" stroke-opacity="0.4"/>
<path d="M1.02 37.54C2.71333 36.18 4.04 35.0667 5 34.2C5.96 33.32 6.76667 32.4067 7.42 31.46C8.08667 30.5 8.42 29.56 8.42 28.64C8.42 27.7733 8.20667 27.0933 7.78 26.6C7.36667 26.0933 6.69333 25.84 5.76 25.84C4.85333 25.84 4.14667 26.1267 3.64 26.7C3.14667 27.26 2.88 28.0133 2.84 28.96H1.08C1.13333 27.4667 1.58667 26.3133 2.44 25.5C3.29333 24.6867 4.39333 24.28 5.74 24.28C7.11333 24.28 8.2 24.66 9 25.42C9.81333 26.18 10.22 27.2267 10.22 28.56C10.22 29.6667 9.88667 30.7467 9.22 31.8C8.56667 32.84 7.82 33.76 6.98 34.56C6.14 35.3467 5.06667 36.2667 3.76 37.32H10.64V38.84H1.02V37.54ZM12.7439 31.62C12.7439 29.3267 13.1172 27.54 13.8639 26.26C14.6106 24.9667 15.9172 24.32 17.7839 24.32C19.6372 24.32 20.9372 24.9667 21.6839 26.26C22.4306 27.54 22.8039 29.3267 22.8039 31.62C22.8039 33.9533 22.4306 35.7667 21.6839 37.06C20.9372 38.3533 19.6372 39 17.7839 39C15.9172 39 14.6106 38.3533 13.8639 37.06C13.1172 35.7667 12.7439 33.9533 12.7439 31.62ZM21.0039 31.62C21.0039 30.46 20.9239 29.48 20.7639 28.68C20.6172 27.8667 20.3039 27.2133 19.8239 26.72C19.3572 26.2267 18.6772 25.98 17.7839 25.98C16.8772 25.98 16.1839 26.2267 15.7039 26.72C15.2372 27.2133 14.9239 27.8667 14.7639 28.68C14.6172 29.48 14.5439 30.46 14.5439 31.62C14.5439 32.82 14.6172 33.8267 14.7639 34.64C14.9239 35.4533 15.2372 36.1067 15.7039 36.6C16.1839 37.0933 16.8772 37.34 17.7839 37.34C18.6772 37.34 19.3572 37.0933 19.8239 36.6C20.3039 36.1067 20.6172 35.4533 20.7639 34.64C20.9239 33.8267 21.0039 32.82 21.0039 31.62ZM25.0825 37.54C26.7758 36.18 28.1025 35.0667 29.0625 34.2C30.0225 33.32 30.8292 32.4067 31.4825 31.46C32.1492 30.5 32.4825 29.56 32.4825 28.64C32.4825 27.7733 32.2692 27.0933 31.8425 26.6C31.4292 26.0933 30.7558 25.84 29.8225 25.84C28.9158 25.84 28.2092 26.1267 27.7025 26.7C27.2092 27.26 26.9425 28.0133 26.9025 28.96H25.1425C25.1958 27.4667 25.6492 26.3133 26.5025 25.5C27.3558 24.6867 28.4558 24.28 29.8025 24.28C31.1758 24.28 32.2625 24.66 33.0625 25.42C33.8758 26.18 34.2825 27.2267 34.2825 28.56C34.2825 29.6667 33.9492 30.7467 33.2825 31.8C32.6292 32.84 31.8825 33.76 31.0425 34.56C30.2025 35.3467 29.1292 36.2667 27.8225 37.32H34.7025V38.84H25.0825V37.54ZM46.0264 26.12H39.0064V30.68C39.3131 30.2533 39.7664 29.9067 40.3664 29.64C40.9664 29.36 41.6131 29.22 42.3064 29.22C43.4131 29.22 44.3131 29.4533 45.0064 29.92C45.6997 30.3733 46.1931 30.9667 46.4864 31.7C46.7931 32.42 46.9464 33.1867 46.9464 34C46.9464 34.96 46.7664 35.82 46.4064 36.58C46.0464 37.34 45.4931 37.94 44.7464 38.38C44.0131 38.82 43.0997 39.04 42.0064 39.04C40.6064 39.04 39.4731 38.68 38.6064 37.96C37.7397 37.24 37.2131 36.28 37.0264 35.08H38.8064C38.9797 35.84 39.3464 36.4333 39.9064 36.86C40.4664 37.2867 41.1731 37.5 42.0264 37.5C43.0797 37.5 43.8731 37.1867 44.4064 36.56C44.9397 35.92 45.2064 35.08 45.2064 34.04C45.2064 33 44.9397 32.2 44.4064 31.64C43.8731 31.0667 43.0864 30.78 42.0464 30.78C41.3397 30.78 40.7197 30.9533 40.1864 31.3C39.6664 31.6333 39.2864 32.0933 39.0464 32.68H37.3264V24.52H46.0264V26.12ZM57.277 41.12H55.457V23.1H57.277V41.12ZM70.4894 25.06C72.0094 25.06 73.3227 25.3467 74.4294 25.92C75.5494 26.48 76.4027 27.2867 76.9894 28.34C77.5894 29.3933 77.8894 30.6333 77.8894 32.06C77.8894 33.4867 77.5894 34.7267 76.9894 35.78C76.4027 36.82 75.5494 37.62 74.4294 38.18C73.3227 38.7267 72.0094 39 70.4894 39H66.1494V25.06H70.4894ZM70.4894 37.5C72.2894 37.5 73.6627 37.0267 74.6094 36.08C75.556 35.12 76.0294 33.78 76.0294 32.06C76.0294 30.3267 75.5494 28.9733 74.5894 28C73.6427 27.0267 72.276 26.54 70.4894 26.54H67.9694V37.5H70.4894ZM90.29 33.1C90.29 33.4467 90.27 33.8133 90.23 34.2H81.47C81.5367 35.28 81.9033 36.1267 82.57 36.74C83.25 37.34 84.07 37.64 85.03 37.64C85.8167 37.64 86.47 37.46 86.99 37.1C87.5233 36.7267 87.8967 36.2333 88.11 35.62H90.07C89.7767 36.6733 89.19 37.5333 88.31 38.2C87.43 38.8533 86.3367 39.18 85.03 39.18C83.99 39.18 83.0567 38.9467 82.23 38.48C81.4167 38.0133 80.7767 37.3533 80.31 36.5C79.8433 35.6333 79.61 34.6333 79.61 33.5C79.61 32.3667 79.8367 31.3733 80.29 30.52C80.7433 29.6667 81.3767 29.0133 82.19 28.56C83.0167 28.0933 83.9633 27.86 85.03 27.86C86.07 27.86 86.99 28.0867 87.79 28.54C88.59 28.9933 89.2033 29.62 89.63 30.42C90.07 31.2067 90.29 32.1 90.29 33.1ZM88.41 32.72C88.41 32.0267 88.2567 31.4333 87.95 30.94C87.6433 30.4333 87.2233 30.0533 86.69 29.8C86.17 29.5333 85.59 29.4 84.95 29.4C84.03 29.4 83.2433 29.6933 82.59 30.28C81.95 30.8667 81.5833 31.68 81.49 32.72H88.41ZM96.5723 39.18C95.7323 39.18 94.979 39.04 94.3123 38.76C93.6457 38.4667 93.119 38.0667 92.7323 37.56C92.3457 37.04 92.1323 36.4467 92.0923 35.78H93.9723C94.0257 36.3267 94.279 36.7733 94.7323 37.12C95.199 37.4667 95.8057 37.64 96.5523 37.64C97.2457 37.64 97.7923 37.4867 98.1923 37.18C98.5923 36.8733 98.7923 36.4867 98.7923 36.02C98.7923 35.54 98.579 35.1867 98.1523 34.96C97.7257 34.72 97.0657 34.4867 96.1723 34.26C95.359 34.0467 94.6923 33.8333 94.1723 33.62C93.6657 33.3933 93.2257 33.0667 92.8523 32.64C92.4923 32.2 92.3123 31.6267 92.3123 30.92C92.3123 30.36 92.479 29.8467 92.8123 29.38C93.1457 28.9133 93.619 28.5467 94.2323 28.28C94.8457 28 95.5457 27.86 96.3323 27.86C97.5457 27.86 98.5257 28.1667 99.2723 28.78C100.019 29.3933 100.419 30.2333 100.472 31.3H98.6523C98.6123 30.7267 98.379 30.2667 97.9523 29.92C97.539 29.5733 96.979 29.4 96.2723 29.4C95.619 29.4 95.099 29.54 94.7123 29.82C94.3257 30.1 94.1323 30.4667 94.1323 30.92C94.1323 31.28 94.2457 31.58 94.4723 31.82C94.7123 32.0467 95.0057 32.2333 95.3523 32.38C95.7123 32.5133 96.2057 32.6667 96.8323 32.84C97.619 33.0533 98.259 33.2667 98.7523 33.48C99.2457 33.68 99.6657 33.9867 100.012 34.4C100.372 34.8133 100.559 35.3533 100.572 36.02C100.572 36.62 100.406 37.16 100.072 37.64C99.739 38.12 99.2657 38.5 98.6523 38.78C98.0523 39.0467 97.359 39.18 96.5723 39.18ZM113.142 33.1C113.142 33.4467 113.122 33.8133 113.082 34.2H104.322C104.388 35.28 104.755 36.1267 105.422 36.74C106.102 37.34 106.922 37.64 107.882 37.64C108.668 37.64 109.322 37.46 109.842 37.1C110.375 36.7267 110.748 36.2333 110.962 35.62H112.922C112.628 36.6733 112.042 37.5333 111.162 38.2C110.282 38.8533 109.188 39.18 107.882 39.18C106.842 39.18 105.908 38.9467 105.082 38.48C104.268 38.0133 103.628 37.3533 103.162 36.5C102.695 35.6333 102.462 34.6333 102.462 33.5C102.462 32.3667 102.688 31.3733 103.142 30.52C103.595 29.6667 104.228 29.0133 105.042 28.56C105.868 28.0933 106.815 27.86 107.882 27.86C108.922 27.86 109.842 28.0867 110.642 28.54C111.442 28.9933 112.055 29.62 112.482 30.42C112.922 31.2067 113.142 32.1 113.142 33.1ZM111.262 32.72C111.262 32.0267 111.108 31.4333 110.802 30.94C110.495 30.4333 110.075 30.0533 109.542 29.8C109.022 29.5333 108.442 29.4 107.802 29.4C106.882 29.4 106.095 29.6933 105.442 30.28C104.802 30.8667 104.435 31.68 104.342 32.72H111.262ZM120.884 27.84C122.217 27.84 123.297 28.2467 124.124 29.06C124.951 29.86 125.364 31.02 125.364 32.54V39H123.564V32.8C123.564 31.7067 123.291 30.8733 122.744 30.3C122.197 29.7133 121.451 29.42 120.504 29.42C119.544 29.42 118.777 29.72 118.204 30.32C117.644 30.92 117.364 31.7933 117.364 32.94V39H115.544V28.04H117.364V29.6C117.724 29.04 118.211 28.6067 118.824 28.3C119.451 27.9933 120.137 27.84 120.884 27.84ZM132.417 37.32L135.817 28.04H137.757L133.457 39H131.337L127.037 28.04H128.997L132.417 37.32ZM144.328 39.18C143.301 39.18 142.368 38.9467 141.528 38.48C140.701 38.0133 140.048 37.3533 139.568 36.5C139.101 35.6333 138.868 34.6333 138.868 33.5C138.868 32.38 139.108 31.3933 139.588 30.54C140.081 29.6733 140.748 29.0133 141.588 28.56C142.428 28.0933 143.368 27.86 144.408 27.86C145.448 27.86 146.388 28.0933 147.228 28.56C148.068 29.0133 148.728 29.6667 149.208 30.52C149.701 31.3733 149.948 32.3667 149.948 33.5C149.948 34.6333 149.694 35.6333 149.188 36.5C148.694 37.3533 148.021 38.0133 147.168 38.48C146.314 38.9467 145.368 39.18 144.328 39.18ZM144.328 37.58C144.981 37.58 145.594 37.4267 146.168 37.12C146.741 36.8133 147.201 36.3533 147.548 35.74C147.908 35.1267 148.088 34.38 148.088 33.5C148.088 32.62 147.914 31.8733 147.568 31.26C147.221 30.6467 146.768 30.1933 146.208 29.9C145.648 29.5933 145.041 29.44 144.388 29.44C143.721 29.44 143.108 29.5933 142.548 29.9C142.001 30.1933 141.561 30.6467 141.228 31.26C140.894 31.8733 140.728 32.62 140.728 33.5C140.728 34.3933 140.888 35.1467 141.208 35.76C141.541 36.3733 141.981 36.8333 142.528 37.14C143.074 37.4333 143.674 37.58 144.328 37.58ZM154.161 24.2V39H152.341V24.2H154.161ZM161.343 37.32L164.743 28.04H166.683L162.383 39H160.263L155.963 28.04H157.923L161.343 37.32ZM169.414 26.26C169.067 26.26 168.774 26.14 168.534 25.9C168.294 25.66 168.174 25.3667 168.174 25.02C168.174 24.6733 168.294 24.38 168.534 24.14C168.774 23.9 169.067 23.78 169.414 23.78C169.747 23.78 170.027 23.9 170.254 24.14C170.494 24.38 170.614 24.6733 170.614 25.02C170.614 25.3667 170.494 25.66 170.254 25.9C170.027 26.14 169.747 26.26 169.414 26.26ZM170.294 28.04V39H168.474V28.04H170.294ZM172.715 33.48C172.715 32.36 172.942 31.38 173.395 30.54C173.849 29.6867 174.469 29.0267 175.255 28.56C176.055 28.0933 176.949 27.86 177.935 27.86C178.789 27.86 179.582 28.06 180.315 28.46C181.049 28.8467 181.609 29.36 181.995 30V24.2H183.835V39H181.995V36.94C181.635 37.5933 181.102 38.1333 180.395 38.56C179.689 38.9733 178.862 39.18 177.915 39.18C176.942 39.18 176.055 38.94 175.255 38.46C174.469 37.98 173.849 37.3067 173.395 36.44C172.942 35.5733 172.715 34.5867 172.715 33.48ZM181.995 33.5C181.995 32.6733 181.829 31.9533 181.495 31.34C181.162 30.7267 180.709 30.26 180.135 29.94C179.575 29.6067 178.955 29.44 178.275 29.44C177.595 29.44 176.975 29.6 176.415 29.92C175.855 30.24 175.409 30.7067 175.075 31.32C174.742 31.9333 174.575 32.6533 174.575 33.48C174.575 34.32 174.742 35.0533 175.075 35.68C175.409 36.2933 175.855 36.7667 176.415 37.1C176.975 37.42 177.595 37.58 178.275 37.58C178.955 37.58 179.575 37.42 180.135 37.1C180.709 36.7667 181.162 36.2933 181.495 35.68C181.829 35.0533 181.995 34.3267 181.995 33.5ZM191.691 39.18C190.664 39.18 189.731 38.9467 188.891 38.48C188.064 38.0133 187.411 37.3533 186.931 36.5C186.464 35.6333 186.231 34.6333 186.231 33.5C186.231 32.38 186.471 31.3933 186.951 30.54C187.444 29.6733 188.111 29.0133 188.951 28.56C189.791 28.0933 190.731 27.86 191.771 27.86C192.811 27.86 193.751 28.0933 194.591 28.56C195.431 29.0133 196.091 29.6667 196.571 30.52C197.064 31.3733 197.311 32.3667 197.311 33.5C197.311 34.6333 197.058 35.6333 196.551 36.5C196.058 37.3533 195.384 38.0133 194.531 38.48C193.678 38.9467 192.731 39.18 191.691 39.18ZM191.691 37.58C192.344 37.58 192.958 37.4267 193.531 37.12C194.104 36.8133 194.564 36.3533 194.911 35.74C195.271 35.1267 195.451 34.38 195.451 33.5C195.451 32.62 195.278 31.8733 194.931 31.26C194.584 30.6467 194.131 30.1933 193.571 29.9C193.011 29.5933 192.404 29.44 191.751 29.44C191.084 29.44 190.471 29.5933 189.911 29.9C189.364 30.1933 188.924 30.6467 188.591 31.26C188.258 31.8733 188.091 32.62 188.091 33.5C188.091 34.3933 188.251 35.1467 188.571 35.76C188.904 36.3733 189.344 36.8333 189.891 37.14C190.438 37.4333 191.038 37.58 191.691 37.58ZM206.856 30.06C207.216 29.4333 207.749 28.9133 208.456 28.5C209.176 28.0733 210.009 27.86 210.956 27.86C211.929 27.86 212.809 28.0933 213.596 28.56C214.396 29.0267 215.023 29.6867 215.476 30.54C215.929 31.38 216.156 32.36 216.156 33.48C216.156 34.5867 215.929 35.5733 215.476 36.44C215.023 37.3067 214.396 37.98 213.596 38.46C212.809 38.94 211.929 39.18 210.956 39.18C210.023 39.18 209.196 38.9733 208.476 38.56C207.769 38.1333 207.229 37.6067 206.856 36.98V44.2H205.036V28.04H206.856V30.06ZM214.296 33.48C214.296 32.6533 214.129 31.9333 213.796 31.32C213.463 30.7067 213.009 30.24 212.436 29.92C211.876 29.6 211.256 29.44 210.576 29.44C209.909 29.44 209.289 29.6067 208.716 29.94C208.156 30.26 207.703 30.7333 207.356 31.36C207.023 31.9733 206.856 32.6867 206.856 33.5C206.856 34.3267 207.023 35.0533 207.356 35.68C207.703 36.2933 208.156 36.7667 208.716 37.1C209.289 37.42 209.909 37.58 210.576 37.58C211.256 37.58 211.876 37.42 212.436 37.1C213.009 36.7667 213.463 36.2933 213.796 35.68C214.129 35.0533 214.296 34.32 214.296 33.48ZM223.332 39.18C222.305 39.18 221.372 38.9467 220.532 38.48C219.705 38.0133 219.052 37.3533 218.572 36.5C218.105 35.6333 217.872 34.6333 217.872 33.5C217.872 32.38 218.112 31.3933 218.592 30.54C219.085 29.6733 219.752 29.0133 220.592 28.56C221.432 28.0933 222.372 27.86 223.412 27.86C224.452 27.86 225.392 28.0933 226.232 28.56C227.072 29.0133 227.732 29.6667 228.212 30.52C228.705 31.3733 228.952 32.3667 228.952 33.5C228.952 34.6333 228.698 35.6333 228.192 36.5C227.698 37.3533 227.025 38.0133 226.172 38.48C225.318 38.9467 224.372 39.18 223.332 39.18ZM223.332 37.58C223.985 37.58 224.598 37.4267 225.172 37.12C225.745 36.8133 226.205 36.3533 226.552 35.74C226.912 35.1267 227.092 34.38 227.092 33.5C227.092 32.62 226.918 31.8733 226.572 31.26C226.225 30.6467 225.772 30.1933 225.212 29.9C224.652 29.5933 224.045 29.44 223.392 29.44C222.725 29.44 222.112 29.5933 221.552 29.9C221.005 30.1933 220.565 30.6467 220.232 31.26C219.898 31.8733 219.732 32.62 219.732 33.5C219.732 34.3933 219.892 35.1467 220.212 35.76C220.545 36.3733 220.985 36.8333 221.532 37.14C222.078 37.4333 222.678 37.58 223.332 37.58ZM233.165 29.82C233.485 29.1933 233.938 28.7067 234.525 28.36C235.125 28.0133 235.851 27.84 236.705 27.84V29.72H236.225C234.185 29.72 233.165 30.8267 233.165 33.04V39H231.345V28.04H233.165V29.82ZM245.958 25.06V39H244.138V25.06H245.958ZM248.38 33.48C248.38 32.36 248.606 31.38 249.06 30.54C249.513 29.6867 250.133 29.0267 250.92 28.56C251.72 28.0933 252.606 27.86 253.58 27.86C254.54 27.86 255.373 28.0667 256.08 28.48C256.786 28.8933 257.313 29.4133 257.66 30.04V28.04H259.5V39H257.66V36.96C257.3 37.6 256.76 38.1333 256.04 38.56C255.333 38.9733 254.506 39.18 253.56 39.18C252.586 39.18 251.706 38.94 250.92 38.46C250.133 37.98 249.513 37.3067 249.06 36.44C248.606 35.5733 248.38 34.5867 248.38 33.48ZM257.66 33.5C257.66 32.6733 257.493 31.9533 257.16 31.34C256.826 30.7267 256.373 30.26 255.8 29.94C255.24 29.6067 254.62 29.44 253.94 29.44C253.26 29.44 252.64 29.6 252.08 29.92C251.52 30.24 251.073 30.7067 250.74 31.32C250.406 31.9333 250.24 32.6533 250.24 33.48C250.24 34.32 250.406 35.0533 250.74 35.68C251.073 36.2933 251.52 36.7667 252.08 37.1C252.64 37.42 253.26 37.58 253.94 37.58C254.62 37.58 255.24 37.42 255.8 37.1C256.373 36.7667 256.826 36.2933 257.16 35.68C257.493 35.0533 257.66 34.3267 257.66 33.5ZM267.915 27.84C269.248 27.84 270.328 28.2467 271.155 29.06C271.982 29.86 272.395 31.02 272.395 32.54V39H270.595V32.8C270.595 31.7067 270.322 30.8733 269.775 30.3C269.228 29.7133 268.482 29.42 267.535 29.42C266.575 29.42 265.808 29.72 265.235 30.32C264.675 30.92 264.395 31.7933 264.395 32.94V39H262.575V28.04H264.395V29.6C264.755 29.04 265.242 28.6067 265.855 28.3C266.482 27.9933 267.168 27.84 267.915 27.84ZM274.688 33.5C274.688 32.3667 274.915 31.38 275.368 30.54C275.821 29.6867 276.448 29.0267 277.248 28.56C278.061 28.0933 278.988 27.86 280.028 27.86C281.375 27.86 282.481 28.1867 283.348 28.84C284.228 29.4933 284.808 30.4 285.088 31.56H283.128C282.941 30.8933 282.575 30.3667 282.028 29.98C281.495 29.5933 280.828 29.4 280.028 29.4C278.988 29.4 278.148 29.76 277.508 30.48C276.868 31.1867 276.548 32.1933 276.548 33.5C276.548 34.82 276.868 35.84 277.508 36.56C278.148 37.28 278.988 37.64 280.028 37.64C280.828 37.64 281.495 37.4533 282.028 37.08C282.561 36.7067 282.928 36.1733 283.128 35.48H285.088C284.795 36.6 284.208 37.5 283.328 38.18C282.448 38.8467 281.348 39.18 280.028 39.18C278.988 39.18 278.061 38.9467 277.248 38.48C276.448 38.0133 275.821 37.3533 275.368 36.5C274.915 35.6467 274.688 34.6467 274.688 33.5ZM286.837 33.48C286.837 32.36 287.063 31.38 287.517 30.54C287.97 29.6867 288.59 29.0267 289.377 28.56C290.177 28.0933 291.063 27.86 292.037 27.86C292.997 27.86 293.83 28.0667 294.537 28.48C295.243 28.8933 295.77 29.4133 296.117 30.04V28.04H297.957V39H296.117V36.96C295.757 37.6 295.217 38.1333 294.497 38.56C293.79 38.9733 292.963 39.18 292.017 39.18C291.043 39.18 290.163 38.94 289.377 38.46C288.59 37.98 287.97 37.3067 287.517 36.44C287.063 35.5733 286.837 34.5867 286.837 33.48ZM296.117 33.5C296.117 32.6733 295.95 31.9533 295.617 31.34C295.283 30.7267 294.83 30.26 294.257 29.94C293.697 29.6067 293.077 29.44 292.397 29.44C291.717 29.44 291.097 29.6 290.537 29.92C289.977 30.24 289.53 30.7067 289.197 31.32C288.863 31.9333 288.697 32.6533 288.697 33.48C288.697 34.32 288.863 35.0533 289.197 35.68C289.53 36.2933 289.977 36.7667 290.537 37.1C291.097 37.42 291.717 37.58 292.397 37.58C293.077 37.58 293.697 37.42 294.257 37.1C294.83 36.7667 295.283 36.2933 295.617 35.68C295.95 35.0533 296.117 34.3267 296.117 33.5ZM305.684 32.02C305.684 30.66 305.991 29.44 306.604 28.36C307.218 27.2667 308.051 26.4133 309.104 25.8C310.171 25.1867 311.351 24.88 312.644 24.88C314.164 24.88 315.491 25.2467 316.624 25.98C317.758 26.7133 318.584 27.7533 319.104 29.1H316.924C316.538 28.26 315.978 27.6133 315.244 27.16C314.524 26.7067 313.658 26.48 312.644 26.48C311.671 26.48 310.798 26.7067 310.024 27.16C309.251 27.6133 308.644 28.26 308.204 29.1C307.764 29.9267 307.544 30.9 307.544 32.02C307.544 33.1267 307.764 34.1 308.204 34.94C308.644 35.7667 309.251 36.4067 310.024 36.86C310.798 37.3133 311.671 37.54 312.644 37.54C313.658 37.54 314.524 37.32 315.244 36.88C315.978 36.4267 316.538 35.78 316.924 34.94H319.104C318.584 36.2733 317.758 37.3067 316.624 38.04C315.491 38.76 314.164 39.12 312.644 39.12C311.351 39.12 310.171 38.82 309.104 38.22C308.051 37.6067 307.218 36.76 306.604 35.68C305.991 34.6 305.684 33.38 305.684 32.02ZM321.133 33.48C321.133 32.36 321.36 31.38 321.813 30.54C322.267 29.6867 322.887 29.0267 323.673 28.56C324.473 28.0933 325.36 27.86 326.333 27.86C327.293 27.86 328.127 28.0667 328.833 28.48C329.54 28.8933 330.067 29.4133 330.413 30.04V28.04H332.253V39H330.413V36.96C330.053 37.6 329.513 38.1333 328.793 38.56C328.087 38.9733 327.26 39.18 326.313 39.18C325.34 39.18 324.46 38.94 323.673 38.46C322.887 37.98 322.267 37.3067 321.813 36.44C321.36 35.5733 321.133 34.5867 321.133 33.48ZM330.413 33.5C330.413 32.6733 330.247 31.9533 329.913 31.34C329.58 30.7267 329.127 30.26 328.553 29.94C327.993 29.6067 327.373 29.44 326.693 29.44C326.013 29.44 325.393 29.6 324.833 29.92C324.273 30.24 323.827 30.7067 323.493 31.32C323.16 31.9333 322.993 32.6533 322.993 33.48C322.993 34.32 323.16 35.0533 323.493 35.68C323.827 36.2933 324.273 36.7667 324.833 37.1C325.393 37.42 326.013 37.58 326.693 37.58C327.373 37.58 327.993 37.42 328.553 37.1C329.127 36.7667 329.58 36.2933 329.913 35.68C330.247 35.0533 330.413 34.3267 330.413 33.5ZM337.149 29.82C337.469 29.1933 337.922 28.7067 338.509 28.36C339.109 28.0133 339.836 27.84 340.689 27.84V29.72H340.209C338.169 29.72 337.149 30.8267 337.149 33.04V39H335.329V28.04H337.149V29.82ZM344.61 29.82C344.93 29.1933 345.383 28.7067 345.97 28.36C346.57 28.0133 347.297 27.84 348.15 27.84V29.72H347.67C345.63 29.72 344.61 30.8267 344.61 33.04V39H342.79V28.04H344.61V29.82ZM360.251 33.1C360.251 33.4467 360.231 33.8133 360.191 34.2H351.431C351.498 35.28 351.864 36.1267 352.531 36.74C353.211 37.34 354.031 37.64 354.991 37.64C355.778 37.64 356.431 37.46 356.951 37.1C357.484 36.7267 357.858 36.2333 358.071 35.62H360.031C359.738 36.6733 359.151 37.5333 358.271 38.2C357.391 38.8533 356.298 39.18 354.991 39.18C353.951 39.18 353.018 38.9467 352.191 38.48C351.378 38.0133 350.738 37.3533 350.271 36.5C349.804 35.6333 349.571 34.6333 349.571 33.5C349.571 32.3667 349.798 31.3733 350.251 30.52C350.704 29.6667 351.338 29.0133 352.151 28.56C352.978 28.0933 353.924 27.86 354.991 27.86C356.031 27.86 356.951 28.0867 357.751 28.54C358.551 28.9933 359.164 29.62 359.591 30.42C360.031 31.2067 360.251 32.1 360.251 33.1ZM358.371 32.72C358.371 32.0267 358.218 31.4333 357.911 30.94C357.604 30.4333 357.184 30.0533 356.651 29.8C356.131 29.5333 355.551 29.4 354.911 29.4C353.991 29.4 353.204 29.6933 352.551 30.28C351.911 30.8667 351.544 31.68 351.451 32.72H358.371ZM367.173 27.86C368.12 27.86 368.947 28.0667 369.653 28.48C370.373 28.8933 370.907 29.4133 371.253 30.04V28.04H373.093V39.24C373.093 40.24 372.88 41.1267 372.453 41.9C372.027 42.6867 371.413 43.3 370.613 43.74C369.827 44.18 368.907 44.4 367.853 44.4C366.413 44.4 365.213 44.06 364.253 43.38C363.293 42.7 362.727 41.7733 362.553 40.6H364.353C364.553 41.2667 364.967 41.8 365.593 42.2C366.22 42.6133 366.973 42.82 367.853 42.82C368.853 42.82 369.667 42.5067 370.293 41.88C370.933 41.2533 371.253 40.3733 371.253 39.24V36.94C370.893 37.58 370.36 38.1133 369.653 38.54C368.947 38.9667 368.12 39.18 367.173 39.18C366.2 39.18 365.313 38.94 364.513 38.46C363.727 37.98 363.107 37.3067 362.653 36.44C362.2 35.5733 361.973 34.5867 361.973 33.48C361.973 32.36 362.2 31.38 362.653 30.54C363.107 29.6867 363.727 29.0267 364.513 28.56C365.313 28.0933 366.2 27.86 367.173 27.86ZM371.253 33.5C371.253 32.6733 371.087 31.9533 370.753 31.34C370.42 30.7267 369.967 30.26 369.393 29.94C368.833 29.6067 368.213 29.44 367.533 29.44C366.853 29.44 366.233 29.6 365.673 29.92C365.113 30.24 364.667 30.7067 364.333 31.32C364 31.9333 363.833 32.6533 363.833 33.48C363.833 34.32 364 35.0533 364.333 35.68C364.667 36.2933 365.113 36.7667 365.673 37.1C366.233 37.42 366.853 37.58 367.533 37.58C368.213 37.58 368.833 37.42 369.393 37.1C369.967 36.7667 370.42 36.2933 370.753 35.68C371.087 35.0533 371.253 34.3267 371.253 33.5ZM380.949 39.18C379.922 39.18 378.989 38.9467 378.149 38.48C377.322 38.0133 376.669 37.3533 376.189 36.5C375.722 35.6333 375.489 34.6333 375.489 33.5C375.489 32.38 375.729 31.3933 376.209 30.54C376.702 29.6733 377.369 29.0133 378.209 28.56C379.049 28.0933 379.989 27.86 381.029 27.86C382.069 27.86 383.009 28.0933 383.849 28.56C384.689 29.0133 385.349 29.6667 385.829 30.52C386.322 31.3733 386.569 32.3667 386.569 33.5C386.569 34.6333 386.316 35.6333 385.809 36.5C385.316 37.3533 384.642 38.0133 383.789 38.48C382.936 38.9467 381.989 39.18 380.949 39.18ZM380.949 37.58C381.602 37.58 382.216 37.4267 382.789 37.12C383.362 36.8133 383.822 36.3533 384.169 35.74C384.529 35.1267 384.709 34.38 384.709 33.5C384.709 32.62 384.536 31.8733 384.189 31.26C383.842 30.6467 383.389 30.1933 382.829 29.9C382.269 29.5933 381.662 29.44 381.009 29.44C380.342 29.44 379.729 29.5933 379.169 29.9C378.622 30.1933 378.182 30.6467 377.849 31.26C377.516 31.8733 377.349 32.62 377.349 33.5C377.349 34.3933 377.509 35.1467 377.829 35.76C378.162 36.3733 378.602 36.8333 379.149 37.14C379.696 37.4333 380.296 37.58 380.949 37.58ZM392.842 39.18C392.002 39.18 391.249 39.04 390.582 38.76C389.915 38.4667 389.389 38.0667 389.002 37.56C388.615 37.04 388.402 36.4467 388.362 35.78H390.242C390.295 36.3267 390.549 36.7733 391.002 37.12C391.469 37.4667 392.075 37.64 392.822 37.64C393.515 37.64 394.062 37.4867 394.462 37.18C394.862 36.8733 395.062 36.4867 395.062 36.02C395.062 35.54 394.849 35.1867 394.422 34.96C393.995 34.72 393.335 34.4867 392.442 34.26C391.629 34.0467 390.962 33.8333 390.442 33.62C389.935 33.3933 389.495 33.0667 389.122 32.64C388.762 32.2 388.582 31.6267 388.582 30.92C388.582 30.36 388.749 29.8467 389.082 29.38C389.415 28.9133 389.889 28.5467 390.502 28.28C391.115 28 391.815 27.86 392.602 27.86C393.815 27.86 394.795 28.1667 395.542 28.78C396.289 29.3933 396.689 30.2333 396.742 31.3H394.922C394.882 30.7267 394.649 30.2667 394.222 29.92C393.809 29.5733 393.249 29.4 392.542 29.4C391.889 29.4 391.369 29.54 390.982 29.82C390.595 30.1 390.402 30.4667 390.402 30.92C390.402 31.28 390.515 31.58 390.742 31.82C390.982 32.0467 391.275 32.2333 391.622 32.38C391.982 32.5133 392.475 32.6667 393.102 32.84C393.889 33.0533 394.529 33.2667 395.022 33.48C395.515 33.68 395.935 33.9867 396.282 34.4C396.642 34.8133 396.829 35.3533 396.842 36.02C396.842 36.62 396.675 37.16 396.342 37.64C396.009 38.12 395.535 38.5 394.922 38.78C394.322 39.0467 393.629 39.18 392.842 39.18ZM398.731 33.48C398.731 32.36 398.958 31.38 399.411 30.54C399.864 29.6867 400.484 29.0267 401.271 28.56C402.071 28.0933 402.958 27.86 403.931 27.86C404.891 27.86 405.724 28.0667 406.431 28.48C407.138 28.8933 407.664 29.4133 408.011 30.04V28.04H409.851V39H408.011V36.96C407.651 37.6 407.111 38.1333 406.391 38.56C405.684 38.9733 404.858 39.18 403.911 39.18C402.938 39.18 402.058 38.94 401.271 38.46C400.484 37.98 399.864 37.3067 399.411 36.44C398.958 35.5733 398.731 34.5867 398.731 33.48ZM408.011 33.5C408.011 32.6733 407.844 31.9533 407.511 31.34C407.178 30.7267 406.724 30.26 406.151 29.94C405.591 29.6067 404.971 29.44 404.291 29.44C403.611 29.44 402.991 29.6 402.431 29.92C401.871 30.24 401.424 30.7067 401.091 31.32C400.758 31.9333 400.591 32.6533 400.591 33.48C400.591 34.32 400.758 35.0533 401.091 35.68C401.424 36.2933 401.871 36.7667 402.431 37.1C402.991 37.42 403.611 37.58 404.291 37.58C404.971 37.58 405.591 37.42 406.151 37.1C406.724 36.7667 407.178 36.2933 407.511 35.68C407.844 35.0533 408.011 34.3267 408.011 33.5ZM413.507 39.12C413.16 39.12 412.867 39 412.627 38.76C412.387 38.52 412.267 38.2267 412.267 37.88C412.267 37.5333 412.387 37.24 412.627 37C412.867 36.76 413.16 36.64 413.507 36.64C413.84 36.64 414.12 36.76 414.347 37C414.587 37.24 414.707 37.5333 414.707 37.88C414.707 38.2267 414.587 38.52 414.347 38.76C414.12 39 413.84 39.12 413.507 39.12ZM431.038 25.06V26.54H427.238V39H425.418V26.54H421.598V25.06H431.038ZM438.058 39.18C437.032 39.18 436.098 38.9467 435.258 38.48C434.432 38.0133 433.778 37.3533 433.298 36.5C432.832 35.6333 432.598 34.6333 432.598 33.5C432.598 32.38 432.838 31.3933 433.318 30.54C433.812 29.6733 434.478 29.0133 435.318 28.56C436.158 28.0933 437.098 27.86 438.138 27.86C439.178 27.86 440.118 28.0933 440.958 28.56C441.798 29.0133 442.458 29.6667 442.938 30.52C443.432 31.3733 443.678 32.3667 443.678 33.5C443.678 34.6333 443.425 35.6333 442.918 36.5C442.425 37.3533 441.752 38.0133 440.898 38.48C440.045 38.9467 439.098 39.18 438.058 39.18ZM438.058 37.58C438.712 37.58 439.325 37.4267 439.898 37.12C440.472 36.8133 440.932 36.3533 441.278 35.74C441.638 35.1267 441.818 34.38 441.818 33.5C441.818 32.62 441.645 31.8733 441.298 31.26C440.952 30.6467 440.498 30.1933 439.938 29.9C439.378 29.5933 438.772 29.44 438.118 29.44C437.452 29.44 436.838 29.5933 436.278 29.9C435.732 30.1933 435.292 30.6467 434.958 31.26C434.625 31.8733 434.458 32.62 434.458 33.5C434.458 34.3933 434.618 35.1467 434.938 35.76C435.272 36.3733 435.712 36.8333 436.258 37.14C436.805 37.4333 437.405 37.58 438.058 37.58ZM445.391 33.48C445.391 32.36 445.618 31.38 446.071 30.54C446.525 29.6867 447.145 29.0267 447.931 28.56C448.731 28.0933 449.625 27.86 450.611 27.86C451.465 27.86 452.258 28.06 452.991 28.46C453.725 28.8467 454.285 29.36 454.671 30V24.2H456.511V39H454.671V36.94C454.311 37.5933 453.778 38.1333 453.071 38.56C452.365 38.9733 451.538 39.18 450.591 39.18C449.618 39.18 448.731 38.94 447.931 38.46C447.145 37.98 446.525 37.3067 446.071 36.44C445.618 35.5733 445.391 34.5867 445.391 33.48ZM454.671 33.5C454.671 32.6733 454.505 31.9533 454.171 31.34C453.838 30.7267 453.385 30.26 452.811 29.94C452.251 29.6067 451.631 29.44 450.951 29.44C450.271 29.44 449.651 29.6 449.091 29.92C448.531 30.24 448.085 30.7067 447.751 31.32C447.418 31.9333 447.251 32.6533 447.251 33.48C447.251 34.32 447.418 35.0533 447.751 35.68C448.085 36.2933 448.531 36.7667 449.091 37.1C449.651 37.42 450.271 37.58 450.951 37.58C451.631 37.58 452.251 37.42 452.811 37.1C453.385 36.7667 453.838 36.2933 454.171 35.68C454.505 35.0533 454.671 34.3267 454.671 33.5ZM464.367 39.18C463.34 39.18 462.407 38.9467 461.567 38.48C460.74 38.0133 460.087 37.3533 459.607 36.5C459.14 35.6333 458.907 34.6333 458.907 33.5C458.907 32.38 459.147 31.3933 459.627 30.54C460.12 29.6733 460.787 29.0133 461.627 28.56C462.467 28.0933 463.407 27.86 464.447 27.86C465.487 27.86 466.427 28.0933 467.267 28.56C468.107 29.0133 468.767 29.6667 469.247 30.52C469.74 31.3733 469.987 32.3667 469.987 33.5C469.987 34.6333 469.734 35.6333 469.227 36.5C468.734 37.3533 468.06 38.0133 467.207 38.48C466.354 38.9467 465.407 39.18 464.367 39.18ZM464.367 37.58C465.02 37.58 465.634 37.4267 466.207 37.12C466.78 36.8133 467.24 36.3533 467.587 35.74C467.947 35.1267 468.127 34.38 468.127 33.5C468.127 32.62 467.954 31.8733 467.607 31.26C467.26 30.6467 466.807 30.1933 466.247 29.9C465.687 29.5933 465.08 29.44 464.427 29.44C463.76 29.44 463.147 29.5933 462.587 29.9C462.04 30.1933 461.6 30.6467 461.267 31.26C460.934 31.8733 460.767 32.62 460.767 33.5C460.767 34.3933 460.927 35.1467 461.247 35.76C461.58 36.3733 462.02 36.8333 462.567 37.14C463.114 37.4333 463.714 37.58 464.367 37.58ZM476.26 39.18C475.42 39.18 474.667 39.04 474 38.76C473.333 38.4667 472.807 38.0667 472.42 37.56C472.033 37.04 471.82 36.4467 471.78 35.78H473.66C473.713 36.3267 473.967 36.7733 474.42 37.12C474.887 37.4667 475.493 37.64 476.24 37.64C476.933 37.64 477.48 37.4867 477.88 37.18C478.28 36.8733 478.48 36.4867 478.48 36.02C478.48 35.54 478.267 35.1867 477.84 34.96C477.413 34.72 476.753 34.4867 475.86 34.26C475.047 34.0467 474.38 33.8333 473.86 33.62C473.353 33.3933 472.913 33.0667 472.54 32.64C472.18 32.2 472 31.6267 472 30.92C472 30.36 472.167 29.8467 472.5 29.38C472.833 28.9133 473.307 28.5467 473.92 28.28C474.533 28 475.233 27.86 476.02 27.86C477.233 27.86 478.213 28.1667 478.96 28.78C479.707 29.3933 480.107 30.2333 480.16 31.3H478.34C478.3 30.7267 478.067 30.2667 477.64 29.92C477.227 29.5733 476.667 29.4 475.96 29.4C475.307 29.4 474.787 29.54 474.4 29.82C474.013 30.1 473.82 30.4667 473.82 30.92C473.82 31.28 473.933 31.58 474.16 31.82C474.4 32.0467 474.693 32.2333 475.04 32.38C475.4 32.5133 475.893 32.6667 476.52 32.84C477.307 33.0533 477.947 33.2667 478.44 33.48C478.933 33.68 479.353 33.9867 479.7 34.4C480.06 34.8133 480.247 35.3533 480.26 36.02C480.26 36.62 480.093 37.16 479.76 37.64C479.427 38.12 478.953 38.5 478.34 38.78C477.74 39.0467 477.047 39.18 476.26 39.18ZM492.941 39.18C491.914 39.18 490.981 38.9467 490.141 38.48C489.314 38.0133 488.661 37.3533 488.181 36.5C487.714 35.6333 487.481 34.6333 487.481 33.5C487.481 32.38 487.721 31.3933 488.201 30.54C488.694 29.6733 489.361 29.0133 490.201 28.56C491.041 28.0933 491.981 27.86 493.021 27.86C494.061 27.86 495.001 28.0933 495.841 28.56C496.681 29.0133 497.341 29.6667 497.821 30.52C498.314 31.3733 498.561 32.3667 498.561 33.5C498.561 34.6333 498.308 35.6333 497.801 36.5C497.308 37.3533 496.634 38.0133 495.781 38.48C494.928 38.9467 493.981 39.18 492.941 39.18ZM492.941 37.58C493.594 37.58 494.208 37.4267 494.781 37.12C495.354 36.8133 495.814 36.3533 496.161 35.74C496.521 35.1267 496.701 34.38 496.701 33.5C496.701 32.62 496.528 31.8733 496.181 31.26C495.834 30.6467 495.381 30.1933 494.821 29.9C494.261 29.5933 493.654 29.44 493.001 29.44C492.334 29.44 491.721 29.5933 491.161 29.9C490.614 30.1933 490.174 30.6467 489.841 31.26C489.508 31.8733 489.341 32.62 489.341 33.5C489.341 34.3933 489.501 35.1467 489.821 35.76C490.154 36.3733 490.594 36.8333 491.141 37.14C491.688 37.4333 492.288 37.58 492.941 37.58ZM504.834 39.18C503.994 39.18 503.241 39.04 502.574 38.76C501.907 38.4667 501.381 38.0667 500.994 37.56C500.607 37.04 500.394 36.4467 500.354 35.78H502.234C502.287 36.3267 502.541 36.7733 502.994 37.12C503.461 37.4667 504.067 37.64 504.814 37.64C505.507 37.64 506.054 37.4867 506.454 37.18C506.854 36.8733 507.054 36.4867 507.054 36.02C507.054 35.54 506.841 35.1867 506.414 34.96C505.987 34.72 505.327 34.4867 504.434 34.26C503.621 34.0467 502.954 33.8333 502.434 33.62C501.927 33.3933 501.487 33.0667 501.114 32.64C500.754 32.2 500.574 31.6267 500.574 30.92C500.574 30.36 500.741 29.8467 501.074 29.38C501.407 28.9133 501.881 28.5467 502.494 28.28C503.107 28 503.807 27.86 504.594 27.86C505.807 27.86 506.787 28.1667 507.534 28.78C508.281 29.3933 508.681 30.2333 508.734 31.3H506.914C506.874 30.7267 506.641 30.2667 506.214 29.92C505.801 29.5733 505.241 29.4 504.534 29.4C503.881 29.4 503.361 29.54 502.974 29.82C502.587 30.1 502.394 30.4667 502.394 30.92C502.394 31.28 502.507 31.58 502.734 31.82C502.974 32.0467 503.267 32.2333 503.614 32.38C503.974 32.5133 504.467 32.6667 505.094 32.84C505.881 33.0533 506.521 33.2667 507.014 33.48C507.507 33.68 507.927 33.9867 508.274 34.4C508.634 34.8133 508.821 35.3533 508.834 36.02C508.834 36.62 508.667 37.16 508.334 37.64C508.001 38.12 507.527 38.5 506.914 38.78C506.314 39.0467 505.621 39.18 504.834 39.18ZM521.075 25.06C522.595 25.06 523.909 25.3467 525.015 25.92C526.135 26.48 526.989 27.2867 527.575 28.34C528.175 29.3933 528.475 30.6333 528.475 32.06C528.475 33.4867 528.175 34.7267 527.575 35.78C526.989 36.82 526.135 37.62 525.015 38.18C523.909 38.7267 522.595 39 521.075 39H516.735V25.06H521.075ZM521.075 37.5C522.875 37.5 524.249 37.0267 525.195 36.08C526.142 35.12 526.615 33.78 526.615 32.06C526.615 30.3267 526.135 28.9733 525.175 28C524.229 27.0267 522.862 26.54 521.075 26.54H518.555V37.5H521.075ZM531.816 26.26C531.469 26.26 531.176 26.14 530.936 25.9C530.696 25.66 530.576 25.3667 530.576 25.02C530.576 24.6733 530.696 24.38 530.936 24.14C531.176 23.9 531.469 23.78 531.816 23.78C532.149 23.78 532.429 23.9 532.656 24.14C532.896 24.38 533.016 24.6733 533.016 25.02C533.016 25.3667 532.896 25.66 532.656 25.9C532.429 26.14 532.149 26.26 531.816 26.26ZM532.696 28.04V39H530.876V28.04H532.696ZM537.618 29.82C537.938 29.1933 538.391 28.7067 538.978 28.36C539.578 28.0133 540.304 27.84 541.158 27.84V29.72H540.678C538.638 29.72 537.618 30.8267 537.618 33.04V39H535.798V28.04H537.618V29.82ZM553.259 33.1C553.259 33.4467 553.239 33.8133 553.199 34.2H544.439C544.505 35.28 544.872 36.1267 545.539 36.74C546.219 37.34 547.039 37.64 547.999 37.64C548.785 37.64 549.439 37.46 549.959 37.1C550.492 36.7267 550.865 36.2333 551.079 35.62H553.039C552.745 36.6733 552.159 37.5333 551.279 38.2C550.399 38.8533 549.305 39.18 547.999 39.18C546.959 39.18 546.025 38.9467 545.199 38.48C544.385 38.0133 543.745 37.3533 543.279 36.5C542.812 35.6333 542.579 34.6333 542.579 33.5C542.579 32.3667 542.805 31.3733 543.259 30.52C543.712 29.6667 544.345 29.0133 545.159 28.56C545.985 28.0933 546.932 27.86 547.999 27.86C549.039 27.86 549.959 28.0867 550.759 28.54C551.559 28.9933 552.172 29.62 552.599 30.42C553.039 31.2067 553.259 32.1 553.259 33.1ZM551.379 32.72C551.379 32.0267 551.225 31.4333 550.919 30.94C550.612 30.4333 550.192 30.0533 549.659 29.8C549.139 29.5333 548.559 29.4 547.919 29.4C546.999 29.4 546.212 29.6933 545.559 30.28C544.919 30.8667 544.552 31.68 544.459 32.72H551.379ZM556.601 26.26C556.254 26.26 555.961 26.14 555.721 25.9C555.481 25.66 555.361 25.3667 555.361 25.02C555.361 24.6733 555.481 24.38 555.721 24.14C555.961 23.9 556.254 23.78 556.601 23.78C556.934 23.78 557.214 23.9 557.441 24.14C557.681 24.38 557.801 24.6733 557.801 25.02C557.801 25.3667 557.681 25.66 557.441 25.9C557.214 26.14 556.934 26.26 556.601 26.26ZM557.481 28.04V39H555.661V28.04H557.481ZM562.803 29.54V36C562.803 36.5333 562.916 36.9133 563.143 37.14C563.37 37.3533 563.763 37.46 564.323 37.46H565.663V39H564.023C563.01 39 562.25 38.7667 561.743 38.3C561.236 37.8333 560.983 37.0667 560.983 36V29.54H559.563V28.04H560.983V25.28H562.803V28.04H565.663V29.54H562.803ZM572.648 39.18C571.621 39.18 570.688 38.9467 569.848 38.48C569.021 38.0133 568.368 37.3533 567.888 36.5C567.421 35.6333 567.188 34.6333 567.188 33.5C567.188 32.38 567.428 31.3933 567.908 30.54C568.401 29.6733 569.068 29.0133 569.908 28.56C570.748 28.0933 571.688 27.86 572.728 27.86C573.768 27.86 574.708 28.0933 575.548 28.56C576.388 29.0133 577.048 29.6667 577.528 30.52C578.021 31.3733 578.268 32.3667 578.268 33.5C578.268 34.6333 578.015 35.6333 577.508 36.5C577.015 37.3533 576.341 38.0133 575.488 38.48C574.635 38.9467 573.688 39.18 572.648 39.18ZM572.648 37.58C573.301 37.58 573.915 37.4267 574.488 37.12C575.061 36.8133 575.521 36.3533 575.868 35.74C576.228 35.1267 576.408 34.38 576.408 33.5C576.408 32.62 576.235 31.8733 575.888 31.26C575.541 30.6467 575.088 30.1933 574.528 29.9C573.968 29.5933 573.361 29.44 572.708 29.44C572.041 29.44 571.428 29.5933 570.868 29.9C570.321 30.1933 569.881 30.6467 569.548 31.26C569.215 31.8733 569.048 32.62 569.048 33.5C569.048 34.3933 569.208 35.1467 569.528 35.76C569.861 36.3733 570.301 36.8333 570.848 37.14C571.395 37.4333 571.995 37.58 572.648 37.58ZM584.541 39.18C583.701 39.18 582.948 39.04 582.281 38.76C581.614 38.4667 581.088 38.0667 580.701 37.56C580.314 37.04 580.101 36.4467 580.061 35.78H581.941C581.994 36.3267 582.248 36.7733 582.701 37.12C583.168 37.4667 583.774 37.64 584.521 37.64C585.214 37.64 585.761 37.4867 586.161 37.18C586.561 36.8733 586.761 36.4867 586.761 36.02C586.761 35.54 586.548 35.1867 586.121 34.96C585.694 34.72 585.034 34.4867 584.141 34.26C583.328 34.0467 582.661 33.8333 582.141 33.62C581.634 33.3933 581.194 33.0667 580.821 32.64C580.461 32.2 580.281 31.6267 580.281 30.92C580.281 30.36 580.448 29.8467 580.781 29.38C581.114 28.9133 581.588 28.5467 582.201 28.28C582.814 28 583.514 27.86 584.301 27.86C585.514 27.86 586.494 28.1667 587.241 28.78C587.988 29.3933 588.388 30.2333 588.441 31.3H586.621C586.581 30.7267 586.348 30.2667 585.921 29.92C585.508 29.5733 584.948 29.4 584.241 29.4C583.588 29.4 583.068 29.54 582.681 29.82C582.294 30.1 582.101 30.4667 582.101 30.92C582.101 31.28 582.214 31.58 582.441 31.82C582.681 32.0467 582.974 32.2333 583.321 32.38C583.681 32.5133 584.174 32.6667 584.801 32.84C585.588 33.0533 586.228 33.2667 586.721 33.48C587.214 33.68 587.634 33.9867 587.981 34.4C588.341 34.8133 588.528 35.3533 588.541 36.02C588.541 36.62 588.374 37.16 588.041 37.64C587.708 38.12 587.234 38.5 586.621 38.78C586.021 39.0467 585.328 39.18 584.541 39.18ZM603.782 39L600.462 33.3H598.262V39H596.442V25.06H600.942C601.996 25.06 602.882 25.24 603.602 25.6C604.336 25.96 604.882 26.4467 605.242 27.06C605.602 27.6733 605.782 28.3733 605.782 29.16C605.782 30.12 605.502 30.9667 604.942 31.7C604.396 32.4333 603.569 32.92 602.462 33.16L605.962 39H603.782ZM598.262 31.84H600.942C601.929 31.84 602.669 31.6 603.162 31.12C603.656 30.6267 603.902 29.9733 603.902 29.16C603.902 28.3333 603.656 27.6933 603.162 27.24C602.682 26.7867 601.942 26.56 600.942 26.56H598.262V31.84ZM618.61 33.1C618.61 33.4467 618.59 33.8133 618.55 34.2H609.79C609.857 35.28 610.224 36.1267 610.89 36.74C611.57 37.34 612.39 37.64 613.35 37.64C614.137 37.64 614.79 37.46 615.31 37.1C615.844 36.7267 616.217 36.2333 616.43 35.62H618.39C618.097 36.6733 617.51 37.5333 616.63 38.2C615.75 38.8533 614.657 39.18 613.35 39.18C612.31 39.18 611.377 38.9467 610.55 38.48C609.737 38.0133 609.097 37.3533 608.63 36.5C608.164 35.6333 607.93 34.6333 607.93 33.5C607.93 32.3667 608.157 31.3733 608.61 30.52C609.064 29.6667 609.697 29.0133 610.51 28.56C611.337 28.0933 612.284 27.86 613.35 27.86C614.39 27.86 615.31 28.0867 616.11 28.54C616.91 28.9933 617.524 29.62 617.95 30.42C618.39 31.2067 618.61 32.1 618.61 33.1ZM616.73 32.72C616.73 32.0267 616.577 31.4333 616.27 30.94C615.964 30.4333 615.544 30.0533 615.01 29.8C614.49 29.5333 613.91 29.4 613.27 29.4C612.35 29.4 611.564 29.6933 610.91 30.28C610.27 30.8667 609.904 31.68 609.81 32.72H616.73ZM624.893 39.18C624.053 39.18 623.299 39.04 622.633 38.76C621.966 38.4667 621.439 38.0667 621.053 37.56C620.666 37.04 620.453 36.4467 620.413 35.78H622.293C622.346 36.3267 622.599 36.7733 623.053 37.12C623.519 37.4667 624.126 37.64 624.873 37.64C625.566 37.64 626.113 37.4867 626.513 37.18C626.913 36.8733 627.113 36.4867 627.113 36.02C627.113 35.54 626.899 35.1867 626.473 34.96C626.046 34.72 625.386 34.4867 624.493 34.26C623.679 34.0467 623.013 33.8333 622.493 33.62C621.986 33.3933 621.546 33.0667 621.173 32.64C620.813 32.2 620.633 31.6267 620.633 30.92C620.633 30.36 620.799 29.8467 621.133 29.38C621.466 28.9133 621.939 28.5467 622.553 28.28C623.166 28 623.866 27.86 624.653 27.86C625.866 27.86 626.846 28.1667 627.593 28.78C628.339 29.3933 628.739 30.2333 628.793 31.3H626.973C626.933 30.7267 626.699 30.2667 626.273 29.92C625.859 29.5733 625.299 29.4 624.593 29.4C623.939 29.4 623.419 29.54 623.033 29.82C622.646 30.1 622.453 30.4667 622.453 30.92C622.453 31.28 622.566 31.58 622.793 31.82C623.033 32.0467 623.326 32.2333 623.673 32.38C624.033 32.5133 624.526 32.6667 625.153 32.84C625.939 33.0533 626.579 33.2667 627.073 33.48C627.566 33.68 627.986 33.9867 628.333 34.4C628.693 34.8133 628.879 35.3533 628.893 36.02C628.893 36.62 628.726 37.16 628.393 37.64C628.059 38.12 627.586 38.5 626.973 38.78C626.373 39.0467 625.679 39.18 624.893 39.18ZM641.462 33.1C641.462 33.4467 641.442 33.8133 641.402 34.2H632.642C632.709 35.28 633.075 36.1267 633.742 36.74C634.422 37.34 635.242 37.64 636.202 37.64C636.989 37.64 637.642 37.46 638.162 37.1C638.695 36.7267 639.069 36.2333 639.282 35.62H641.242C640.949 36.6733 640.362 37.5333 639.482 38.2C638.602 38.8533 637.509 39.18 636.202 39.18C635.162 39.18 634.229 38.9467 633.402 38.48C632.589 38.0133 631.949 37.3533 631.482 36.5C631.015 35.6333 630.782 34.6333 630.782 33.5C630.782 32.3667 631.009 31.3733 631.462 30.52C631.915 29.6667 632.549 29.0133 633.362 28.56C634.189 28.0933 635.135 27.86 636.202 27.86C637.242 27.86 638.162 28.0867 638.962 28.54C639.762 28.9933 640.375 29.62 640.802 30.42C641.242 31.2067 641.462 32.1 641.462 33.1ZM639.582 32.72C639.582 32.0267 639.429 31.4333 639.122 30.94C638.815 30.4333 638.395 30.0533 637.862 29.8C637.342 29.5333 636.762 29.4 636.122 29.4C635.202 29.4 634.415 29.6933 633.762 30.28C633.122 30.8667 632.755 31.68 632.662 32.72H639.582ZM645.684 29.82C646.004 29.1933 646.458 28.7067 647.044 28.36C647.644 28.0133 648.371 27.84 649.224 27.84V29.72H648.744C646.704 29.72 645.684 30.8267 645.684 33.04V39H643.864V28.04H645.684V29.82ZM655.405 37.32L658.805 28.04H660.745L656.445 39H654.325L650.025 28.04H651.985L655.405 37.32ZM661.856 33.48C661.856 32.36 662.083 31.38 662.536 30.54C662.989 29.6867 663.609 29.0267 664.396 28.56C665.196 28.0933 666.083 27.86 667.056 27.86C668.016 27.86 668.849 28.0667 669.556 28.48C670.263 28.8933 670.789 29.4133 671.136 30.04V28.04H672.976V39H671.136V36.96C670.776 37.6 670.236 38.1333 669.516 38.56C668.809 38.9733 667.983 39.18 667.036 39.18C666.063 39.18 665.183 38.94 664.396 38.46C663.609 37.98 662.989 37.3067 662.536 36.44C662.083 35.5733 661.856 34.5867 661.856 33.48ZM671.136 33.5C671.136 32.6733 670.969 31.9533 670.636 31.34C670.303 30.7267 669.849 30.26 669.276 29.94C668.716 29.6067 668.096 29.44 667.416 29.44C666.736 29.44 666.116 29.6 665.556 29.92C664.996 30.24 664.549 30.7067 664.216 31.32C663.883 31.9333 663.716 32.6533 663.716 33.48C663.716 34.32 663.883 35.0533 664.216 35.68C664.549 36.2933 664.996 36.7667 665.556 37.1C666.116 37.42 666.736 37.58 667.416 37.58C668.096 37.58 668.716 37.42 669.276 37.1C669.849 36.7667 670.303 36.2933 670.636 35.68C670.969 35.0533 671.136 34.3267 671.136 33.5ZM675.372 33.48C675.372 32.36 675.598 31.38 676.052 30.54C676.505 29.6867 677.125 29.0267 677.912 28.56C678.712 28.0933 679.605 27.86 680.592 27.86C681.445 27.86 682.238 28.06 682.972 28.46C683.705 28.8467 684.265 29.36 684.652 30V24.2H686.492V39H684.652V36.94C684.292 37.5933 683.758 38.1333 683.052 38.56C682.345 38.9733 681.518 39.18 680.572 39.18C679.598 39.18 678.712 38.94 677.912 38.46C677.125 37.98 676.505 37.3067 676.052 36.44C675.598 35.5733 675.372 34.5867 675.372 33.48ZM684.652 33.5C684.652 32.6733 684.485 31.9533 684.152 31.34C683.818 30.7267 683.365 30.26 682.792 29.94C682.232 29.6067 681.612 29.44 680.932 29.44C680.252 29.44 679.632 29.6 679.072 29.92C678.512 30.24 678.065 30.7067 677.732 31.32C677.398 31.9333 677.232 32.6533 677.232 33.48C677.232 34.32 677.398 35.0533 677.732 35.68C678.065 36.2933 678.512 36.7667 679.072 37.1C679.632 37.42 680.252 37.58 680.932 37.58C681.612 37.58 682.232 37.42 682.792 37.1C683.365 36.7667 683.818 36.2933 684.152 35.68C684.485 35.0533 684.652 34.3267 684.652 33.5ZM694.347 39.18C693.321 39.18 692.387 38.9467 691.547 38.48C690.721 38.0133 690.067 37.3533 689.587 36.5C689.121 35.6333 688.887 34.6333 688.887 33.5C688.887 32.38 689.127 31.3933 689.607 30.54C690.101 29.6733 690.767 29.0133 691.607 28.56C692.447 28.0933 693.387 27.86 694.427 27.86C695.467 27.86 696.407 28.0933 697.247 28.56C698.087 29.0133 698.747 29.6667 699.227 30.52C699.721 31.3733 699.967 32.3667 699.967 33.5C699.967 34.6333 699.714 35.6333 699.207 36.5C698.714 37.3533 698.041 38.0133 697.187 38.48C696.334 38.9467 695.387 39.18 694.347 39.18ZM694.347 37.58C695.001 37.58 695.614 37.4267 696.187 37.12C696.761 36.8133 697.221 36.3533 697.567 35.74C697.927 35.1267 698.107 34.38 698.107 33.5C698.107 32.62 697.934 31.8733 697.587 31.26C697.241 30.6467 696.787 30.1933 696.227 29.9C695.667 29.5933 695.061 29.44 694.407 29.44C693.741 29.44 693.127 29.5933 692.567 29.9C692.021 30.1933 691.581 30.6467 691.247 31.26C690.914 31.8733 690.747 32.62 690.747 33.5C690.747 34.3933 690.907 35.1467 691.227 35.76C691.561 36.3733 692.001 36.8333 692.547 37.14C693.094 37.4333 693.694 37.58 694.347 37.58ZM706.24 39.18C705.4 39.18 704.647 39.04 703.98 38.76C703.314 38.4667 702.787 38.0667 702.4 37.56C702.014 37.04 701.8 36.4467 701.76 35.78H703.64C703.694 36.3267 703.947 36.7733 704.4 37.12C704.867 37.4667 705.474 37.64 706.22 37.64C706.914 37.64 707.46 37.4867 707.86 37.18C708.26 36.8733 708.46 36.4867 708.46 36.02C708.46 35.54 708.247 35.1867 707.82 34.96C707.394 34.72 706.734 34.4867 705.84 34.26C705.027 34.0467 704.36 33.8333 703.84 33.62C703.334 33.3933 702.894 33.0667 702.52 32.64C702.16 32.2 701.98 31.6267 701.98 30.92C701.98 30.36 702.147 29.8467 702.48 29.38C702.814 28.9133 703.287 28.5467 703.9 28.28C704.514 28 705.214 27.86 706 27.86C707.214 27.86 708.194 28.1667 708.94 28.78C709.687 29.3933 710.087 30.2333 710.14 31.3H708.32C708.28 30.7267 708.047 30.2667 707.62 29.92C707.207 29.5733 706.647 29.4 705.94 29.4C705.287 29.4 704.767 29.54 704.38 29.82C703.994 30.1 703.8 30.4667 703.8 30.92C703.8 31.28 703.914 31.58 704.14 31.82C704.38 32.0467 704.674 32.2333 705.02 32.38C705.38 32.5133 705.874 32.6667 706.5 32.84C707.287 33.0533 707.927 33.2667 708.42 33.48C708.914 33.68 709.334 33.9867 709.68 34.4C710.04 34.8133 710.227 35.3533 710.24 36.02C710.24 36.62 710.074 37.16 709.74 37.64C709.407 38.12 708.934 38.5 708.32 38.78C707.72 39.0467 707.027 39.18 706.24 39.18ZM713.39 39.12C713.043 39.12 712.75 39 712.51 38.76C712.27 38.52 712.15 38.2267 712.15 37.88C712.15 37.5333 712.27 37.24 712.51 37C712.75 36.76 713.043 36.64 713.39 36.64C713.723 36.64 714.003 36.76 714.23 37C714.47 37.24 714.59 37.5333 714.59 37.88C714.59 38.2267 714.47 38.52 714.23 38.76C714.003 39 713.723 39.12 713.39 39.12Z" fill="#737373"/>
</svg>
