<svg width="252" height="126" viewBox="0 0 252 126" fill="none" xmlns="http://www.w3.org/2000/svg">
<circle cx="126" cy="37" r="37" fill="#2A2A2A"/>
<path d="M141.833 20.1665H109.167C106.921 20.1665 105.104 22.004 105.104 24.2498L105.083 48.7498C105.083 50.9957 106.921 52.8332 109.167 52.8332H141.833C144.079 52.8332 145.917 50.9957 145.917 48.7498V24.2498C145.917 22.004 144.079 20.1665 141.833 20.1665ZM141.017 28.8436L126.582 37.8678C125.929 38.2761 125.071 38.2761 124.418 37.8678L109.983 28.8436C109.779 28.7287 109.599 28.5734 109.456 28.3872C109.313 28.201 109.21 27.9877 109.152 27.7602C109.093 27.5328 109.082 27.2959 109.118 27.0639C109.154 26.8319 109.237 26.6096 109.361 26.4105C109.486 26.2114 109.649 26.0397 109.842 25.9056C110.035 25.7716 110.253 25.678 110.483 25.6306C110.712 25.5832 110.95 25.583 111.18 25.6299C111.41 25.6768 111.628 25.7699 111.821 25.9036L125.5 34.4582L139.179 25.9036C139.372 25.7699 139.59 25.6768 139.82 25.6299C140.05 25.583 140.288 25.5832 140.517 25.6306C140.747 25.678 140.965 25.7716 141.158 25.9056C141.351 26.0397 141.514 26.2114 141.639 26.4105C141.763 26.6096 141.846 26.8319 141.882 27.0639C141.918 27.2959 141.907 27.5328 141.848 27.7602C141.79 27.9877 141.687 28.201 141.544 28.3872C141.401 28.5734 141.221 28.7287 141.017 28.8436Z" fill="white"/>
<path d="M102.251 100.54V105.2H107.331V106.7H102.251V111.5H107.931V113H100.431V99.04H107.931V100.54H102.251ZM123.865 101.84C124.718 101.84 125.478 102.02 126.145 102.38C126.811 102.727 127.338 103.253 127.725 103.96C128.111 104.667 128.305 105.527 128.305 106.54V113H126.505V106.8C126.505 105.707 126.231 104.873 125.685 104.3C125.151 103.713 124.425 103.42 123.505 103.42C122.558 103.42 121.805 103.727 121.245 104.34C120.685 104.94 120.405 105.813 120.405 106.96V113H118.605V106.8C118.605 105.707 118.331 104.873 117.785 104.3C117.251 103.713 116.525 103.42 115.605 103.42C114.658 103.42 113.905 103.727 113.345 104.34C112.785 104.94 112.505 105.813 112.505 106.96V113H110.685V102.04H112.505V103.62C112.865 103.047 113.345 102.607 113.945 102.3C114.558 101.993 115.231 101.84 115.965 101.84C116.885 101.84 117.698 102.047 118.405 102.46C119.111 102.873 119.638 103.48 119.985 104.28C120.291 103.507 120.798 102.907 121.505 102.48C122.211 102.053 122.998 101.84 123.865 101.84ZM130.61 107.48C130.61 106.36 130.837 105.38 131.29 104.54C131.743 103.687 132.363 103.027 133.15 102.56C133.95 102.093 134.837 101.86 135.81 101.86C136.77 101.86 137.603 102.067 138.31 102.48C139.017 102.893 139.543 103.413 139.89 104.04V102.04H141.73V113H139.89V110.96C139.53 111.6 138.99 112.133 138.27 112.56C137.563 112.973 136.737 113.18 135.79 113.18C134.817 113.18 133.937 112.94 133.15 112.46C132.363 111.98 131.743 111.307 131.29 110.44C130.837 109.573 130.61 108.587 130.61 107.48ZM139.89 107.5C139.89 106.673 139.723 105.953 139.39 105.34C139.057 104.727 138.603 104.26 138.03 103.94C137.47 103.607 136.85 103.44 136.17 103.44C135.49 103.44 134.87 103.6 134.31 103.92C133.75 104.24 133.303 104.707 132.97 105.32C132.637 105.933 132.47 106.653 132.47 107.48C132.47 108.32 132.637 109.053 132.97 109.68C133.303 110.293 133.75 110.767 134.31 111.1C134.87 111.42 135.49 111.58 136.17 111.58C136.85 111.58 137.47 111.42 138.03 111.1C138.603 110.767 139.057 110.293 139.39 109.68C139.723 109.053 139.89 108.327 139.89 107.5ZM145.746 100.26C145.399 100.26 145.106 100.14 144.866 99.9C144.626 99.66 144.506 99.3667 144.506 99.02C144.506 98.6733 144.626 98.38 144.866 98.14C145.106 97.9 145.399 97.78 145.746 97.78C146.079 97.78 146.359 97.9 146.586 98.14C146.826 98.38 146.946 98.6733 146.946 99.02C146.946 99.3667 146.826 99.66 146.586 99.9C146.359 100.14 146.079 100.26 145.746 100.26ZM146.626 102.04V113H144.806V102.04H146.626ZM151.548 98.2V113H149.728V98.2H151.548Z" fill="black"/>
</svg>
