<svg width="252" height="126" viewBox="0 0 252 126" fill="none" xmlns="http://www.w3.org/2000/svg">
<circle cx="126" cy="37" r="37" fill="#2A2A2A"/>
<path d="M126.002 16.8335C136.588 16.8335 145.169 25.4144 145.169 36.0002C145.169 46.5859 136.588 55.1668 126.002 55.1668C122.615 55.1727 119.287 54.2762 116.361 52.5697L106.843 55.1668L109.434 45.6448C107.726 42.7179 106.829 39.3889 106.835 36.0002C106.835 25.4144 115.416 16.8335 126.002 16.8335ZM119.47 26.9918L119.087 27.0072C118.839 27.0242 118.597 27.0893 118.374 27.1988C118.166 27.3167 117.976 27.4639 117.81 27.6358C117.58 27.8524 117.45 28.0402 117.31 28.2223C116.601 29.1441 116.219 30.2757 116.225 31.4385C116.229 32.3777 116.474 33.2919 116.857 34.1467C117.641 35.8756 118.931 37.706 120.633 39.4022C121.043 39.8105 121.446 40.2207 121.879 40.6021C123.994 42.4639 126.514 43.8067 129.239 44.5236L130.328 44.6903C130.682 44.7095 131.037 44.6827 131.393 44.6654C131.952 44.636 132.497 44.4849 132.99 44.2227C133.241 44.093 133.486 43.9523 133.724 43.801C133.724 43.801 133.805 43.746 133.964 43.6285C134.222 43.4368 134.382 43.3007 134.596 43.0765C134.757 42.9104 134.891 42.7174 134.999 42.4977C135.148 42.1852 135.298 41.5892 135.359 41.0927C135.405 40.7132 135.392 40.5062 135.386 40.3778C135.378 40.1727 135.208 39.96 135.022 39.8699L133.906 39.3697C133.906 39.3697 132.239 38.6432 131.219 38.1794C131.112 38.1329 130.998 38.1063 130.882 38.1008C130.751 38.0871 130.618 38.1017 130.493 38.1437C130.368 38.1857 130.253 38.2541 130.157 38.3442C130.148 38.3404 130.019 38.4497 128.633 40.1287C128.554 40.2355 128.444 40.3163 128.319 40.3607C128.193 40.4051 128.057 40.411 127.928 40.3778C127.803 40.3445 127.681 40.3023 127.562 40.2513C127.324 40.1517 127.242 40.1133 127.079 40.0443C125.979 39.565 124.96 38.9163 124.06 38.1219C123.819 37.9111 123.595 37.6811 123.365 37.4587C122.611 36.7366 121.953 35.9196 121.41 35.0284L121.296 34.8463C121.216 34.7233 121.151 34.5914 121.101 34.4534C121.028 34.1717 121.218 33.9455 121.218 33.9455C121.218 33.9455 121.684 33.4357 121.9 33.1597C122.111 32.8913 122.289 32.6307 122.404 32.4447C122.63 32.0806 122.701 31.7068 122.583 31.4174C122.046 30.1064 121.491 28.8024 120.919 27.5055C120.806 27.2487 120.47 27.0647 120.166 27.0282C120.062 27.0155 119.959 27.0052 119.855 26.9976C119.598 26.9828 119.34 26.9854 119.083 27.0052L119.47 26.9918Z" fill="white"/>
<path d="M93.0092 99.06L88.9692 113H86.9292L83.6892 101.78L80.3292 113L78.3092 113.02L74.4092 99.06H76.3492L79.3892 110.88L82.7492 99.06H84.7892L87.9892 110.84L91.0492 99.06H93.0092ZM100.441 101.84C101.268 101.84 102.014 102.02 102.681 102.38C103.348 102.727 103.868 103.253 104.241 103.96C104.628 104.667 104.821 105.527 104.821 106.54V113H103.021V106.8C103.021 105.707 102.748 104.873 102.201 104.3C101.654 103.713 100.908 103.42 99.9609 103.42C99.0009 103.42 98.2343 103.72 97.6609 104.32C97.1009 104.92 96.8209 105.793 96.8209 106.94V113H95.0009V98.2H96.8209V103.6C97.1809 103.04 97.6743 102.607 98.3009 102.3C98.9409 101.993 99.6543 101.84 100.441 101.84ZM107.114 107.48C107.114 106.36 107.341 105.38 107.794 104.54C108.247 103.687 108.867 103.027 109.654 102.56C110.454 102.093 111.341 101.86 112.314 101.86C113.274 101.86 114.107 102.067 114.814 102.48C115.521 102.893 116.047 103.413 116.394 104.04V102.04H118.234V113H116.394V110.96C116.034 111.6 115.494 112.133 114.774 112.56C114.067 112.973 113.241 113.18 112.294 113.18C111.321 113.18 110.441 112.94 109.654 112.46C108.867 111.98 108.247 111.307 107.794 110.44C107.341 109.573 107.114 108.587 107.114 107.48ZM116.394 107.5C116.394 106.673 116.227 105.953 115.894 105.34C115.561 104.727 115.107 104.26 114.534 103.94C113.974 103.607 113.354 103.44 112.674 103.44C111.994 103.44 111.374 103.6 110.814 103.92C110.254 104.24 109.807 104.707 109.474 105.32C109.141 105.933 108.974 106.653 108.974 107.48C108.974 108.32 109.141 109.053 109.474 109.68C109.807 110.293 110.254 110.767 110.814 111.1C111.374 111.42 111.994 111.58 112.674 111.58C113.354 111.58 113.974 111.42 114.534 111.1C115.107 110.767 115.561 110.293 115.894 109.68C116.227 109.053 116.394 108.327 116.394 107.5ZM123.53 103.54V110C123.53 110.533 123.643 110.913 123.87 111.14C124.096 111.353 124.49 111.46 125.05 111.46H126.39V113H124.75C123.736 113 122.976 112.767 122.47 112.3C121.963 111.833 121.71 111.067 121.71 110V103.54H120.29V102.04H121.71V99.28H123.53V102.04H126.39V103.54H123.53ZM132.475 113.18C131.635 113.18 130.881 113.04 130.215 112.76C129.548 112.467 129.021 112.067 128.635 111.56C128.248 111.04 128.035 110.447 127.995 109.78H129.875C129.928 110.327 130.181 110.773 130.635 111.12C131.101 111.467 131.708 111.64 132.455 111.64C133.148 111.64 133.695 111.487 134.095 111.18C134.495 110.873 134.695 110.487 134.695 110.02C134.695 109.54 134.481 109.187 134.055 108.96C133.628 108.72 132.968 108.487 132.075 108.26C131.261 108.047 130.595 107.833 130.075 107.62C129.568 107.393 129.128 107.067 128.755 106.64C128.395 106.2 128.215 105.627 128.215 104.92C128.215 104.36 128.381 103.847 128.715 103.38C129.048 102.913 129.521 102.547 130.135 102.28C130.748 102 131.448 101.86 132.235 101.86C133.448 101.86 134.428 102.167 135.175 102.78C135.921 103.393 136.321 104.233 136.375 105.3H134.555C134.515 104.727 134.281 104.267 133.855 103.92C133.441 103.573 132.881 103.4 132.175 103.4C131.521 103.4 131.001 103.54 130.615 103.82C130.228 104.1 130.035 104.467 130.035 104.92C130.035 105.28 130.148 105.58 130.375 105.82C130.615 106.047 130.908 106.233 131.255 106.38C131.615 106.513 132.108 106.667 132.735 106.84C133.521 107.053 134.161 107.267 134.655 107.48C135.148 107.68 135.568 107.987 135.915 108.4C136.275 108.813 136.461 109.353 136.475 110.02C136.475 110.62 136.308 111.16 135.975 111.64C135.641 112.12 135.168 112.5 134.555 112.78C133.955 113.047 133.261 113.18 132.475 113.18ZM138.364 107.48C138.364 106.36 138.591 105.38 139.044 104.54C139.497 103.687 140.117 103.027 140.904 102.56C141.704 102.093 142.591 101.86 143.564 101.86C144.524 101.86 145.357 102.067 146.064 102.48C146.771 102.893 147.297 103.413 147.644 104.04V102.04H149.484V113H147.644V110.96C147.284 111.6 146.744 112.133 146.024 112.56C145.317 112.973 144.491 113.18 143.544 113.18C142.571 113.18 141.691 112.94 140.904 112.46C140.117 111.98 139.497 111.307 139.044 110.44C138.591 109.573 138.364 108.587 138.364 107.48ZM147.644 107.5C147.644 106.673 147.477 105.953 147.144 105.34C146.811 104.727 146.357 104.26 145.784 103.94C145.224 103.607 144.604 103.44 143.924 103.44C143.244 103.44 142.624 103.6 142.064 103.92C141.504 104.24 141.057 104.707 140.724 105.32C140.391 105.933 140.224 106.653 140.224 107.48C140.224 108.32 140.391 109.053 140.724 109.68C141.057 110.293 141.504 110.767 142.064 111.1C142.624 111.42 143.244 111.58 143.924 111.58C144.604 111.58 145.224 111.42 145.784 111.1C146.357 110.767 146.811 110.293 147.144 109.68C147.477 109.053 147.644 108.327 147.644 107.5ZM154.38 104.06C154.74 103.433 155.273 102.913 155.98 102.5C156.7 102.073 157.533 101.86 158.48 101.86C159.453 101.86 160.333 102.093 161.12 102.56C161.92 103.027 162.546 103.687 163 104.54C163.453 105.38 163.68 106.36 163.68 107.48C163.68 108.587 163.453 109.573 163 110.44C162.546 111.307 161.92 111.98 161.12 112.46C160.333 112.94 159.453 113.18 158.48 113.18C157.546 113.18 156.72 112.973 156 112.56C155.293 112.133 154.753 111.607 154.38 110.98V118.2H152.56V102.04H154.38V104.06ZM161.82 107.48C161.82 106.653 161.653 105.933 161.32 105.32C160.986 104.707 160.533 104.24 159.96 103.92C159.4 103.6 158.78 103.44 158.1 103.44C157.433 103.44 156.813 103.607 156.24 103.94C155.68 104.26 155.226 104.733 154.88 105.36C154.546 105.973 154.38 106.687 154.38 107.5C154.38 108.327 154.546 109.053 154.88 109.68C155.226 110.293 155.68 110.767 156.24 111.1C156.813 111.42 157.433 111.58 158.1 111.58C158.78 111.58 159.4 111.42 159.96 111.1C160.533 110.767 160.986 110.293 161.32 109.68C161.653 109.053 161.82 108.32 161.82 107.48ZM167.895 104.06C168.255 103.433 168.788 102.913 169.495 102.5C170.215 102.073 171.048 101.86 171.995 101.86C172.968 101.86 173.848 102.093 174.635 102.56C175.435 103.027 176.062 103.687 176.515 104.54C176.968 105.38 177.195 106.36 177.195 107.48C177.195 108.587 176.968 109.573 176.515 110.44C176.062 111.307 175.435 111.98 174.635 112.46C173.848 112.94 172.968 113.18 171.995 113.18C171.062 113.18 170.235 112.973 169.515 112.56C168.808 112.133 168.268 111.607 167.895 110.98V118.2H166.075V102.04H167.895V104.06ZM175.335 107.48C175.335 106.653 175.168 105.933 174.835 105.32C174.502 104.707 174.048 104.24 173.475 103.92C172.915 103.6 172.295 103.44 171.615 103.44C170.948 103.44 170.328 103.607 169.755 103.94C169.195 104.26 168.742 104.733 168.395 105.36C168.062 105.973 167.895 106.687 167.895 107.5C167.895 108.327 168.062 109.053 168.395 109.68C168.742 110.293 169.195 110.767 169.755 111.1C170.328 111.42 170.948 111.58 171.615 111.58C172.295 111.58 172.915 111.42 173.475 111.1C174.048 110.767 174.502 110.293 174.835 109.68C175.168 109.053 175.335 108.32 175.335 107.48Z" fill="black"/>
</svg>
