<svg width="1379" height="1" viewBox="0 0 1379 1" fill="none" xmlns="http://www.w3.org/2000/svg">
<path d="M0.15625 0.88V0.16H12.1562V0.88H0.15625ZM18.625 0.88V0.16H30.625V0.88H18.625ZM37.0938 0.88V0.16H49.0938V0.88H37.0938ZM55.5625 0.88V0.16H67.5625V0.88H55.5625ZM74.0312 0.88V0.16H86.0312V0.88H74.0312ZM92.5 0.88V0.16H104.5V0.88H92.5ZM110.969 0.88V0.16H122.969V0.88H110.969ZM129.438 0.88V0.16H141.438V0.88H129.438ZM147.906 0.88V0.16H159.906V0.88H147.906ZM166.375 0.88V0.16H178.375V0.88H166.375ZM184.844 0.88V0.16H196.844V0.88H184.844ZM203.312 0.88V0.16H215.312V0.88H203.312ZM221.781 0.88V0.16H233.781V0.88H221.781ZM240.25 0.88V0.16H252.25V0.88H240.25ZM258.719 0.88V0.16H270.719V0.88H258.719ZM277.188 0.88V0.16H289.188V0.88H277.188ZM295.656 0.88V0.16H307.656V0.88H295.656ZM314.125 0.88V0.16H326.125V0.88H314.125ZM332.594 0.88V0.16H344.594V0.88H332.594ZM351.062 0.88V0.16H363.062V0.88H351.062ZM369.531 0.88V0.16H381.531V0.88H369.531ZM388 0.88V0.16H400V0.88H388ZM406.469 0.88V0.16H418.469V0.88H406.469ZM424.938 0.88V0.16H436.938V0.88H424.938ZM443.406 0.88V0.16H455.406V0.88H443.406ZM461.875 0.88V0.16H473.875V0.88H461.875ZM480.344 0.88V0.16H492.344V0.88H480.344ZM498.812 0.88V0.16H510.812V0.88H498.812ZM517.281 0.88V0.16H529.281V0.88H517.281ZM535.75 0.88V0.16H547.75V0.88H535.75ZM554.219 0.88V0.16H566.219V0.88H554.219ZM572.688 0.88V0.16H584.688V0.88H572.688ZM591.156 0.88V0.16H603.156V0.88H591.156ZM609.625 0.88V0.16H621.625V0.88H609.625ZM628.094 0.88V0.16H640.094V0.88H628.094ZM646.562 0.88V0.16H658.562V0.88H646.562ZM665.031 0.88V0.16H677.031V0.88H665.031ZM683.5 0.88V0.16H695.5V0.88H683.5ZM701.969 0.88V0.16H713.969V0.88H701.969ZM720.438 0.88V0.16H732.438V0.88H720.438ZM738.906 0.88V0.16H750.906V0.88H738.906ZM757.375 0.88V0.16H769.375V0.88H757.375ZM775.844 0.88V0.16H787.844V0.88H775.844ZM794.312 0.88V0.16H806.312V0.88H794.312ZM812.781 0.88V0.16H824.781V0.88H812.781ZM831.25 0.88V0.16H843.25V0.88H831.25ZM849.719 0.88V0.16H861.719V0.88H849.719ZM868.188 0.88V0.16H880.188V0.88H868.188ZM886.656 0.88V0.16H898.656V0.88H886.656ZM905.125 0.88V0.16H917.125V0.88H905.125ZM923.594 0.88V0.16H935.594V0.88H923.594ZM942.062 0.88V0.16H954.062V0.88H942.062ZM960.531 0.88V0.16H972.531V0.88H960.531ZM979 0.88V0.16H991V0.88H979ZM997.469 0.88V0.16H1009.47V0.88H997.469ZM1015.94 0.88V0.16H1027.94V0.88H1015.94ZM1034.41 0.88V0.16H1046.41V0.88H1034.41ZM1052.88 0.88V0.16H1064.88V0.88H1052.88ZM1071.34 0.88V0.16H1083.34V0.88H1071.34ZM1089.81 0.88V0.16H1101.81V0.88H1089.81ZM1108.28 0.88V0.16H1120.28V0.88H1108.28ZM1126.75 0.88V0.16H1138.75V0.88H1126.75ZM1145.22 0.88V0.16H1157.22V0.88H1145.22ZM1163.69 0.88V0.16H1175.69V0.88H1163.69ZM1182.16 0.88V0.16H1194.16V0.88H1182.16ZM1200.62 0.88V0.16H1212.62V0.88H1200.62ZM1219.09 0.88V0.16H1231.09V0.88H1219.09ZM1237.56 0.88V0.16H1249.56V0.88H1237.56ZM1256.03 0.88V0.16H1268.03V0.88H1256.03ZM1274.5 0.88V0.16H1286.5V0.88H1274.5ZM1292.97 0.88V0.16H1304.97V0.88H1292.97ZM1311.44 0.88V0.16H1323.44V0.88H1311.44ZM1329.91 0.88V0.16H1341.91V0.88H1329.91ZM1348.38 0.88V0.16H1360.38V0.88H1348.38ZM1366.84 0.88V0.16H1378.84V0.88H1366.84Z" fill="#6C6C6C"/>
</svg>
